<svg width="63" height="57" viewBox="0 0 63 57" fill="none" xmlns="http://www.w3.org/2000/svg">
<path d="M49.3526 56.2224H46.2783L29.5262 31.7086C29.3105 31.3962 28.9653 31.2347 28.6201 31.2347C28.4044 31.2347 28.1886 31.2993 28.0052 31.4286C27.509 31.7624 27.3796 32.4518 27.714 32.9472L43.6247 56.2224H2.17055C0.433852 56.2224 -0.601693 54.2837 0.379917 52.8513L24.0464 18.31C24.9094 17.0498 26.7755 17.0498 27.6277 18.31L51.1432 52.8513C52.1248 54.2837 51.0893 56.2224 49.3526 56.2224Z" fill="#222222"/>
<path d="M62.4801 3.37119L47.3568 25.4401L42.1468 17.8145C41.478 16.8883 40.615 17.5237 40.615 17.5237C39.7197 18.1484 40.3238 19.0424 40.3238 19.0424L46.0193 27.3788L40.9926 34.7244L27.9404 15.542C26.9911 14.1526 24.9416 14.1525 24.0031 15.5312L21.9968 18.4608L11.7168 3.37119C10.7352 1.93871 11.7708 0 13.5075 0H60.6895C62.4262 0 63.4617 1.93871 62.4801 3.37119Z" fill="#BD1820"/>
</svg>
