<svg width="35" height="35" viewBox="0 0 35 35" fill="none" xmlns="http://www.w3.org/2000/svg">
<path d="M17.5001 0C14.7356 0.000296051 12.0106 0.655505 9.54816 1.91195C7.08574 3.1684 4.95602 4.99034 3.33345 7.22852C1.71088 9.46669 0.64163 12.0574 0.213297 14.7885C-0.215036 17.5196 0.00973234 20.3132 0.869189 22.9407C1.72865 25.5681 3.19834 27.9546 5.15787 29.9046C7.1174 31.8546 9.51102 33.3126 12.1426 34.1592C14.7743 35.0058 17.569 35.2169 20.2979 34.7752C23.0269 34.3335 25.6124 33.2516 27.8426 31.6181L25.254 28.0904C22.8737 29.8333 19.9757 30.7234 17.0274 30.6172C14.0791 30.511 11.2526 29.4145 9.00397 27.5048C6.7553 25.5951 5.2156 22.9835 4.63329 20.0913C4.05098 17.1992 4.46003 14.1952 5.79444 11.5641C7.12885 8.93294 9.31079 6.8281 11.9882 5.58917C14.6656 4.35024 17.6824 4.04947 20.5517 4.7354C23.421 5.42134 25.9756 7.05396 27.8032 9.36985C29.6308 11.6857 30.6249 14.5498 30.6251 17.5V19.6875C30.6251 20.2677 30.3946 20.8241 29.9844 21.2343C29.5741 21.6445 29.0177 21.875 28.4376 21.875C27.8574 21.875 27.301 21.6445 26.8908 21.2343C26.4805 20.8241 26.2501 20.2677 26.2501 19.6875V17.5C26.2579 15.4802 25.5693 13.5194 24.3003 11.9479C23.0314 10.3765 21.2596 9.29036 19.2834 8.87257C17.3073 8.45479 15.2475 8.73084 13.4511 9.65424C11.6547 10.5776 10.2314 12.092 9.42101 13.9421C8.61063 15.7922 8.46265 17.8651 9.00201 19.8116C9.54137 21.7581 10.7351 23.4593 12.3821 24.6285C14.0292 25.7977 16.0288 26.3635 18.0443 26.2307C20.0597 26.0978 21.9678 25.2744 23.4472 23.8992C24.3082 24.9328 25.4674 25.6754 26.7663 26.0255C28.0652 26.3757 29.4406 26.3163 30.7045 25.8555C31.9684 25.3948 33.0593 24.5551 33.8281 23.4511C34.5969 22.3471 35.0062 21.0328 35.0001 19.6875V17.5C34.9951 12.8603 33.1497 8.41197 29.8689 5.13117C26.5881 1.85037 22.1398 0.00501824 17.5001 0V0ZM17.5001 21.875C16.6348 21.875 15.7889 21.6184 15.0695 21.1377C14.35 20.6569 13.7892 19.9737 13.4581 19.1742C13.127 18.3748 13.0403 17.4951 13.2091 16.6465C13.378 15.7978 13.7946 15.0183 14.4065 14.4064C15.0183 13.7946 15.7979 13.3779 16.6466 13.2091C17.4952 13.0403 18.3749 13.1269 19.1743 13.458C19.9737 13.7892 20.657 14.3499 21.1378 15.0694C21.6185 15.7888 21.8751 16.6347 21.8751 17.5C21.8751 18.6603 21.4141 19.7731 20.5937 20.5936C19.7732 21.4141 18.6604 21.875 17.5001 21.875Z" fill="#222222"/>
</svg>
