<svg width="469" height="538" viewBox="0 0 469 538" fill="none" xmlns="http://www.w3.org/2000/svg">
<path d="M446.321 18.5172H234.349V520.984H446.321V18.5172Z" fill="#F9F9F9"/>
<path d="M234.349 18.5172H22.3765V520.984H234.349V18.5172Z" fill="#F9F9F9"/>
<path d="M234.349 18.5172H22.3765V520.984H234.349V18.5172Z" fill="#981B21"/>
<path d="M446.321 18.5172H234.349V520.984H446.321V18.5172Z" fill="#981B21"/>
<path d="M237 36H232V521H237V36Z" fill="#711D21"/>
<path opacity="0.22" d="M436.645 18.267H425.456H43.2411H33.8671H22.3765V520.984H43.2411V35.7832H425.456V520.984H446.321V18.267H436.645Z" fill="#E3252E"/>
<path d="M22.3765 9.25861H0V537.75H22.3765V9.25861Z" fill="#BD1820"/>
<path d="M469 538V9.25861L446.321 9.50884V538H469Z" fill="#BD1820"/>
<path d="M456.3 0H12.7002H0V18.5172H469V0.250233L456.3 0Z" fill="#BD1820"/>
<path d="M446.321 520.984H22.3765V538H446.321V520.984Z" fill="#BD1820"/>
<path d="M446.321 524.487H22.3765V527.74H446.321V524.487Z" fill="#9E1219"/>
<path d="M446.321 531.244H22.3765V534.497H446.321V531.244Z" fill="#9E1219"/>
</svg>
