<svg width="31" height="36" viewBox="0 0 31 36" fill="none" xmlns="http://www.w3.org/2000/svg">
<path d="M15.4999 0.0302734C11.6082 0.0349055 7.87722 1.58303 5.1255 4.33503C2.37378 7.08702 0.826023 10.8181 0.821777 14.7099C0.821777 22.4011 12.7305 32.6897 14.0926 33.8388L15.5028 35.0303L16.913 33.8388C18.2722 32.6897 30.1839 22.4011 30.1839 14.7099C30.1796 10.8171 28.6311 7.08513 25.8781 4.33297C23.1251 1.58081 19.3926 0.0333615 15.4999 0.0302734V0.0302734ZM15.4999 29.2596C11.0301 25.188 5.19386 18.573 5.19386 14.7099C5.19386 11.9765 6.27967 9.35514 8.21243 7.42238C10.1452 5.48963 12.7666 4.40382 15.4999 4.40382C18.2332 4.40382 20.8546 5.48963 22.7874 7.42238C24.7201 9.35514 25.8059 11.9765 25.8059 14.7099C25.8059 18.5657 19.9682 25.1836 15.4999 29.2596Z" fill="#222222"/>
<path d="M15.5 18.9561C17.9138 18.9561 19.8706 16.9993 19.8706 14.5855C19.8706 12.1716 17.9138 10.2148 15.5 10.2148C13.0862 10.2148 11.1294 12.1716 11.1294 14.5855C11.1294 16.9993 13.0862 18.9561 15.5 18.9561Z" fill="#222222"/>
</svg>
