<svg width="126" height="113" viewBox="0 0 126 113" fill="none" xmlns="http://www.w3.org/2000/svg">
<path d="M98.9261 112.698H92.7638L59.1846 63.5608C58.7522 62.9347 58.0602 62.6108 57.3683 62.6108C56.9359 62.6108 56.5035 62.7404 56.1359 62.9994C55.1413 63.6687 54.8818 65.0504 55.5521 66.0435L87.4448 112.698H4.35081C0.869647 112.698 -1.20608 108.812 0.761536 105.941L48.2005 36.7036C49.9303 34.1776 53.671 34.1776 55.3791 36.7036L102.515 105.941C104.483 108.812 102.407 112.698 98.9261 112.698Z" fill="#F9F9F9"/>
<path d="M125.238 6.75748L94.9238 50.9942L84.4803 35.7089C83.1397 33.8522 81.41 35.126 81.41 35.126C79.6153 36.3781 80.8262 38.1701 80.8262 38.1701L92.2427 54.8803L82.1667 69.6042L56.0039 31.1535C54.1012 28.3685 49.993 28.3685 48.1118 31.1319L44.0901 37.0042L23.4842 6.75748C21.5166 3.88609 23.5923 0 27.0735 0H121.649C125.13 0 127.206 3.88609 125.238 6.75748Z" fill="#F9F9F9"/>
</svg>
