<svg width="35" height="35" viewBox="0 0 35 35" fill="none" xmlns="http://www.w3.org/2000/svg">
<path d="M23.2486 35C12.82 35 -0.000190256 22.1798 -0.000190256 11.7512C-0.00979652 10.582 0.212916 9.42247 0.655022 8.33999C1.09713 7.25751 1.74982 6.27361 2.57523 5.4454L7.88939 0.131229L17.5756 9.81602L13.2546 14.1458C14.8038 17.5056 17.4974 20.2049 20.854 21.7612L25.1911 17.4256L34.8686 27.1104L29.5529 32.426C28.7248 33.251 27.7411 33.9033 26.6588 34.3452C25.5766 34.787 24.4175 35.0096 23.2486 35V35ZM7.88939 6.31894L5.66689 8.53998C5.24963 8.96303 4.92055 9.46475 4.69875 10.016C4.47695 10.5673 4.36684 11.1571 4.37481 11.7512C4.37481 20.3189 15.9671 30.625 23.2486 30.625C23.8421 30.6326 24.4313 30.5224 24.982 30.3009C25.5327 30.0794 26.034 29.7509 26.4569 29.3344L28.6808 27.1104L25.1808 23.6104L21.8923 26.8989L20.5667 26.3929C17.8368 25.3768 15.3573 23.7857 13.296 21.7275C11.2348 19.6693 9.64014 17.1921 8.62002 14.4637L8.08189 13.125L11.3894 9.81602L7.88939 6.31894ZM17.8411 5.95727C19.383 4.81154 21.2856 4.25845 23.2015 4.39893C25.1174 4.5394 26.9189 5.36408 28.2773 6.72247C29.6357 8.08086 30.4604 9.88238 30.6009 11.7983C30.7413 13.7142 30.1882 15.6167 29.0425 17.1587L32.1619 20.2796C34.1049 17.9001 35.0951 14.8839 34.9406 11.8159C34.7861 8.74776 33.4979 5.84634 31.3257 3.67412C29.1534 1.50191 26.252 0.213661 23.1839 0.0591565C20.1158 -0.0953485 17.0997 0.894896 14.7202 2.8379L17.8411 5.95727ZM23.9733 16.6819L20.4165 13.125V7.29165H24.7915V11.3137L27.0679 13.5887L23.9733 16.6819Z" fill="#222222"/>
</svg>
