<svg width="181" height="57" viewBox="0 0 181 57" fill="none" xmlns="http://www.w3.org/2000/svg">
<path d="M14.6456 18.6785H6.70121L5.42768 22.4384H0L7.70184 1.15224H13.7056L21.4075 22.4384H15.9192L14.6456 18.6785ZM13.3115 14.676L10.6734 6.88314L8.06571 14.676H13.3115Z" fill="#222222"/>
<path d="M22.7206 13.9482C22.7206 12.2097 23.044 10.6835 23.6909 9.36957C24.358 8.0556 25.2575 7.04486 26.3896 6.33734C27.5216 5.62983 28.785 5.27606 30.1798 5.27606C31.2917 5.27606 32.3024 5.50854 33.2121 5.97348C34.1419 6.43842 34.8697 7.06508 35.3953 7.85346V0H40.5804V22.4384H35.3953V20.0127C34.9101 20.8213 34.2127 21.4681 33.303 21.9533C32.4136 22.4384 31.3725 22.681 30.1798 22.681C28.785 22.681 27.5216 22.3273 26.3896 21.6197C25.2575 20.892 24.358 19.8712 23.6909 18.5572C23.044 17.223 22.7206 15.6867 22.7206 13.9482ZM35.3953 13.9785C35.3953 12.6848 35.0314 11.6639 34.3037 10.916C33.5961 10.1681 32.7269 9.79408 31.696 9.79408C30.665 9.79408 29.7857 10.1681 29.0579 10.916C28.3504 11.6437 27.9966 12.6545 27.9966 13.9482C27.9966 15.242 28.3504 16.2729 29.0579 17.0411C29.7857 17.789 30.665 18.163 31.696 18.163C32.7269 18.163 33.5961 17.789 34.3037 17.0411C35.0314 16.2931 35.3953 15.2723 35.3953 13.9785Z" fill="#222222"/>
<path d="M49.5167 8.33861C50.1231 7.40873 50.8812 6.681 51.7908 6.15541C52.7005 5.60961 53.7112 5.33671 54.823 5.33671V10.825H53.3979C52.1042 10.825 51.1338 11.108 50.487 11.6741C49.8401 12.2199 49.5167 13.1902 49.5167 14.585V22.4384H44.3316V5.51864H49.5167V8.33861Z" fill="#222222"/>
<path d="M56.2705 13.9482C56.2705 12.2097 56.5939 10.6835 57.2408 9.36957C57.9079 8.0556 58.8074 7.04486 59.9394 6.33734C61.0715 5.62983 62.3349 5.27606 63.7297 5.27606C64.9224 5.27606 65.9635 5.51864 66.8529 6.0038C67.7626 6.48896 68.46 7.12572 68.9451 7.9141V5.51864H74.1302V22.4384H68.9451V20.043C68.4398 20.8314 67.7323 21.4681 66.8226 21.9533C65.9331 22.4384 64.8921 22.681 63.6994 22.681C62.3248 22.681 61.0715 22.3273 59.9394 21.6197C58.8074 20.892 57.9079 19.8712 57.2408 18.5572C56.5939 17.223 56.2705 15.6867 56.2705 13.9482ZM68.9451 13.9785C68.9451 12.6848 68.5813 11.6639 67.8535 10.916C67.146 10.1681 66.2768 9.79408 65.2458 9.79408C64.2149 9.79408 63.3355 10.1681 62.6078 10.916C61.9003 11.6437 61.5465 12.6545 61.5465 13.9482C61.5465 15.242 61.9003 16.2729 62.6078 17.0411C63.3355 17.789 64.2149 18.163 65.2458 18.163C66.2768 18.163 67.146 17.789 67.8535 17.0411C68.5813 16.2931 68.9451 15.2723 68.9451 13.9785Z" fill="#222222"/>
<path d="M83.0665 8.33861C83.673 7.40873 84.431 6.681 85.3407 6.15541C86.2504 5.60961 87.2611 5.33671 88.3729 5.33671V10.825H86.9478C85.654 10.825 84.6837 11.108 84.0368 11.6741C83.39 12.2199 83.0665 13.1902 83.0665 14.585V22.4384H77.8814V5.51864H83.0665V8.33861Z" fill="#222222"/>
<path d="M14.6456 52.1593H6.70121L5.42768 55.9193H0L7.70185 34.6331H13.7056L21.4075 55.9193H15.9192L14.6456 52.1593ZM13.3115 48.1568L10.6734 40.364L8.06571 48.1568H13.3115Z" fill="#BD1820"/>
<path d="M30.6347 56.1618C29.159 56.1618 27.845 55.9091 26.6928 55.4038C25.5405 54.8984 24.6309 54.2111 23.9638 53.3419C23.2967 52.4524 22.9227 51.4619 22.8419 50.3703H27.9663C28.027 50.9565 28.2999 51.4316 28.785 51.7954C29.2702 52.1593 29.8665 52.3412 30.574 52.3412C31.2209 52.3412 31.7162 52.2199 32.0598 51.9774C32.4237 51.7146 32.6056 51.381 32.6056 50.9767C32.6056 50.4916 32.3529 50.1378 31.8476 49.9155C31.3422 49.6729 30.5235 49.4101 29.3915 49.1271C28.1786 48.8441 27.1678 48.551 26.3592 48.2477C25.5507 47.9243 24.8532 47.429 24.267 46.7619C23.6808 46.0746 23.3877 45.1549 23.3877 44.0026C23.3877 43.0323 23.6505 42.153 24.176 41.3646C24.7218 40.556 25.5102 39.9192 26.5412 39.4543C27.5924 38.9893 28.8356 38.7569 30.2708 38.7569C32.3934 38.7569 34.0611 39.2825 35.274 40.3336C36.5071 41.3848 37.2146 42.7796 37.3965 44.5181H32.6056C32.5248 43.9319 32.262 43.4669 31.8172 43.1233C31.3927 42.7796 30.8267 42.6078 30.1192 42.6078C29.5128 42.6078 29.0478 42.7291 28.7244 42.9717C28.4009 43.194 28.2392 43.5074 28.2392 43.9117C28.2392 44.3968 28.4919 44.7607 28.9973 45.0033C29.5229 45.2458 30.3315 45.4884 31.4231 45.731C32.6764 46.0544 33.6972 46.3779 34.4856 46.7013C35.274 47.0045 35.9613 47.5099 36.5475 48.2174C37.154 48.9047 37.4673 49.8346 37.4875 51.0071C37.4875 51.9976 37.2045 52.887 36.6385 53.6754C36.0927 54.4436 35.2942 55.05 34.243 55.4947C33.2121 55.9395 32.0093 56.1618 30.6347 56.1618Z" fill="#BD1820"/>
<path d="M39.6288 47.4594C39.6288 45.7007 39.9825 44.1643 40.6901 42.8504C41.4178 41.5364 42.4184 40.5257 43.692 39.8182C44.9857 39.1106 46.4614 38.7569 48.119 38.7569C50.2416 38.7569 52.0103 39.3128 53.4254 40.4246C54.8606 41.5364 55.8006 43.1031 56.2454 45.1245H50.7267C50.2618 43.8308 49.3622 43.1839 48.028 43.1839C47.0779 43.1839 46.3199 43.5579 45.7539 44.3058C45.1879 45.0336 44.9048 46.0847 44.9048 47.4594C44.9048 48.834 45.1879 49.8952 45.7539 50.6432C46.3199 51.3709 47.0779 51.7348 48.028 51.7348C49.3622 51.7348 50.2618 51.0879 50.7267 49.7942H56.2454C55.8006 51.7752 54.8606 53.3318 53.4254 54.4638C51.9901 55.5958 50.2213 56.1618 48.119 56.1618C46.4614 56.1618 44.9857 55.8081 43.692 55.1006C42.4184 54.393 41.4178 53.3823 40.6901 52.0683C39.9825 50.7544 39.6288 49.218 39.6288 47.4594Z" fill="#BD1820"/>
<path d="M74.9684 47.1865C74.9684 47.6716 74.9381 48.177 74.8774 48.7026H63.1427C63.2236 49.7537 63.5571 50.5623 64.1433 51.1283C64.7498 51.6741 65.4876 51.947 66.3569 51.947C67.6506 51.947 68.5502 51.4012 69.0555 50.3096H74.5742C74.2912 51.4215 73.7757 52.4221 73.0278 53.3115C72.3 54.201 71.3803 54.8984 70.2684 55.4038C69.1566 55.9091 67.9134 56.1618 66.5388 56.1618C64.8812 56.1618 63.4055 55.8081 62.1118 55.1006C60.818 54.393 59.8073 53.3823 59.0795 52.0683C58.3518 50.7544 57.9879 49.218 57.9879 47.4594C57.9879 45.7007 58.3417 44.1643 59.0492 42.8504C59.7769 41.5364 60.7877 40.5257 62.0814 39.8182C63.3752 39.1106 64.861 38.7569 66.5388 38.7569C68.1762 38.7569 69.6317 39.1005 70.9052 39.7878C72.1787 40.4751 73.1693 41.4556 73.8768 42.7291C74.6045 44.0026 74.9684 45.4884 74.9684 47.1865ZM69.662 45.822C69.662 44.9325 69.3588 44.225 68.7523 43.6994C68.1459 43.1738 67.3878 42.911 66.4782 42.911C65.6089 42.911 64.8711 43.1637 64.2646 43.6691C63.6784 44.1744 63.3145 44.8921 63.173 45.822H69.662Z" fill="#BD1820"/>
<path d="M88.0133 38.8175C89.9944 38.8175 91.5711 39.4644 92.7436 40.7581C93.9363 42.0317 94.5326 43.7904 94.5326 46.0342V55.9193H89.3778V46.7316C89.3778 45.5996 89.0847 44.7202 88.4985 44.0936C87.9123 43.4669 87.1239 43.1536 86.1334 43.1536C85.1428 43.1536 84.3544 43.4669 83.7682 44.0936C83.182 44.7202 82.8889 45.5996 82.8889 46.7316V55.9193H77.7038V38.9995H82.8889V41.2433C83.4145 40.4954 84.122 39.9091 85.0114 39.4846C85.9009 39.0399 86.9015 38.8175 88.0133 38.8175Z" fill="#BD1820"/>
<path d="M105.019 56.1618C103.543 56.1618 102.229 55.9091 101.077 55.4038C99.9248 54.8984 99.0151 54.2111 98.348 53.3419C97.6809 52.4524 97.3069 51.4619 97.2261 50.3703H102.351C102.411 50.9565 102.684 51.4316 103.169 51.7954C103.654 52.1593 104.251 52.3412 104.958 52.3412C105.605 52.3412 106.1 52.2199 106.444 51.9774C106.808 51.7146 106.99 51.381 106.99 50.9767C106.99 50.4916 106.737 50.1378 106.232 49.9155C105.726 49.6729 104.908 49.4101 103.776 49.1271C102.563 48.8441 101.552 48.551 100.743 48.2477C99.9349 47.9243 99.2374 47.429 98.6512 46.7619C98.065 46.0746 97.7719 45.1549 97.7719 44.0026C97.7719 43.0323 98.0347 42.153 98.5602 41.3646C99.106 40.556 99.8944 39.9192 100.925 39.4543C101.977 38.9893 103.22 38.7569 104.655 38.7569C106.778 38.7569 108.445 39.2825 109.658 40.3336C110.891 41.3848 111.599 42.7796 111.781 44.5181H106.99C106.909 43.9319 106.646 43.4669 106.201 43.1233C105.777 42.7796 105.211 42.6078 104.503 42.6078C103.897 42.6078 103.432 42.7291 103.109 42.9717C102.785 43.194 102.623 43.5074 102.623 43.9117C102.623 44.3968 102.876 44.7607 103.381 45.0033C103.907 45.2458 104.716 45.4884 105.807 45.731C107.061 46.0544 108.081 46.3779 108.87 46.7013C109.658 47.0045 110.345 47.5099 110.932 48.2174C111.538 48.9047 111.851 49.8346 111.872 51.0071C111.872 51.9976 111.589 52.887 111.023 53.6754C110.477 54.4436 109.678 55.05 108.627 55.4947C107.596 55.9395 106.393 56.1618 105.019 56.1618Z" fill="#BD1820"/>
<path d="M130.993 47.1865C130.993 47.6716 130.963 48.177 130.902 48.7026H119.168C119.249 49.7537 119.582 50.5623 120.168 51.1283C120.775 51.6741 121.513 51.947 122.382 51.947C123.676 51.947 124.575 51.4012 125.081 50.3096H130.599C130.316 51.4215 129.801 52.4221 129.053 53.3115C128.325 54.201 127.405 54.8984 126.293 55.4038C125.182 55.9091 123.938 56.1618 122.564 56.1618C120.906 56.1618 119.431 55.8081 118.137 55.1006C116.843 54.393 115.832 53.3823 115.105 52.0683C114.377 50.7544 114.013 49.218 114.013 47.4594C114.013 45.7007 114.367 44.1643 115.074 42.8504C115.802 41.5364 116.813 40.5257 118.106 39.8182C119.4 39.1106 120.886 38.7569 122.564 38.7569C124.201 38.7569 125.657 39.1005 126.93 39.7878C128.204 40.4751 129.194 41.4556 129.902 42.7291C130.63 44.0026 130.993 45.4884 130.993 47.1865ZM125.687 45.822C125.687 44.9325 125.384 44.225 124.777 43.6994C124.171 43.1738 123.413 42.911 122.503 42.911C121.634 42.911 120.896 43.1637 120.29 43.6691C119.703 44.1744 119.34 44.8921 119.198 45.822H125.687Z" fill="#BD1820"/>
<path d="M150.436 38.9995V55.9193H145.251V53.6148C144.726 54.3627 144.008 54.9692 143.098 55.4341C142.209 55.8788 141.218 56.1012 140.127 56.1012C138.833 56.1012 137.691 55.8182 136.7 55.2522C135.71 54.6659 134.942 53.827 134.396 52.7354C133.85 51.6438 133.577 50.3602 133.577 48.8845V38.9995H138.732V48.1871C138.732 49.3191 139.025 50.1985 139.611 50.8251C140.198 51.4518 140.986 51.7651 141.976 51.7651C142.987 51.7651 143.786 51.4518 144.372 50.8251C144.958 50.1985 145.251 49.3191 145.251 48.1871V38.9995H150.436Z" fill="#BD1820"/>
<path d="M159.346 41.8194C159.952 40.8895 160.71 40.1618 161.62 39.6362C162.53 39.0904 163.54 38.8175 164.652 38.8175V44.3058H163.227C161.933 44.3058 160.963 44.5889 160.316 45.1549C159.669 45.7007 159.346 46.671 159.346 48.0658V55.9193H154.161V38.9995H159.346V41.8194Z" fill="#BD1820"/>
<path d="M174.014 56.1618C172.538 56.1618 171.224 55.9091 170.072 55.4038C168.92 54.8984 168.01 54.2111 167.343 53.3419C166.676 52.4524 166.302 51.4619 166.221 50.3703H171.345C171.406 50.9565 171.679 51.4316 172.164 51.7954C172.649 52.1593 173.246 52.3412 173.953 52.3412C174.6 52.3412 175.095 52.2199 175.439 51.9774C175.803 51.7146 175.985 51.381 175.985 50.9767C175.985 50.4916 175.732 50.1378 175.227 49.9155C174.721 49.6729 173.903 49.4101 172.771 49.1271C171.558 48.8441 170.547 48.551 169.738 48.2477C168.93 47.9243 168.232 47.429 167.646 46.7619C167.06 46.0746 166.767 45.1549 166.767 44.0026C166.767 43.0323 167.03 42.153 167.555 41.3646C168.101 40.556 168.889 39.9192 169.92 39.4543C170.971 38.9893 172.215 38.7569 173.65 38.7569C175.772 38.7569 177.44 39.2825 178.653 40.3336C179.886 41.3848 180.594 42.7796 180.776 44.5181H175.985C175.904 43.9319 175.641 43.4669 175.196 43.1233C174.772 42.7796 174.206 42.6078 173.498 42.6078C172.892 42.6078 172.427 42.7291 172.103 42.9717C171.78 43.194 171.618 43.5074 171.618 43.9117C171.618 44.3968 171.871 44.7607 172.376 45.0033C172.902 45.2458 173.711 45.4884 174.802 45.731C176.055 46.0544 177.076 46.3779 177.865 46.7013C178.653 47.0045 179.34 47.5099 179.927 48.2174C180.533 48.9047 180.846 49.8346 180.867 51.0071C180.867 51.9976 180.584 52.887 180.018 53.6754C179.472 54.4436 178.673 55.05 177.622 55.4947C176.591 55.9395 175.388 56.1618 174.014 56.1618Z" fill="#BD1820"/>
</svg>
